<svg xmlns="http://www.w3.org/2000/svg" width="104.002" height="97.665" viewBox="0 0 104.002 97.665">
  <path id="减去_3" data-name="减去 3" d="M360,124v0h0V109l39-22.5v-45L412,34V94Z" transform="translate(-307.998 -34)" fill="#ffcc1c"/>
  <path id="减去_5" data-name="减去 5" d="M0,0V0H0V15L39,37.5v45L52,90V30Z" transform="translate(52.001 90) rotate(180)" fill="#d8ae1c"/>
  <path id="减去_7" data-name="减去 7" d="M352,81V71l39-22.5v10L352,81Z" transform="translate(-299.999 -41)" fill="#333"/>
  <path id="减去_9" data-name="减去 9" d="M0,0V10L39,32.5v-10L0,0Z" transform="translate(52.001 39.999) rotate(180)" fill="#002b00"/>
  <path id="减去_11" data-name="减去 11" d="M352,81V71l39-22.5v10L352,81Z" transform="translate(-299.999 -19.75)" fill="#333"/>
  <path id="减去_13" data-name="减去 13" d="M0,0V10L39,32.5v-10L0,0Z" transform="translate(52.001 61.25) rotate(180)" fill="#002b00"/>
  <path id="减去_14" data-name="减去 14" d="M312,36.665V25h7l-7,11.662Z" transform="translate(-259.999 61)" fill="#ffcc1c"/>
  <path id="减去_15" data-name="减去 15" d="M0,0V11.665H7L0,0Z" transform="translate(52.001 97.665) rotate(180)" fill="#d8ae1c"/>
</svg>
